<mxfile host="app.diagrams.net" modified="2024-05-14T04:58:31.882Z" agent="Mozilla/5.0 (Macintosh; Intel Mac OS X 10.15; rv:125.0) Gecko/20100101 Firefox/125.0" etag="Tjg5CvjScORNN4rcU_MB" version="24.3.1" type="device">
  <diagram name="Page-1" id="YhezpF31wJ6bJmdl2Y2Z">
    <mxGraphModel dx="1884" dy="1212" grid="1" gridSize="10" guides="1" tooltips="1" connect="1" arrows="1" fold="1" page="1" pageScale="1" pageWidth="850" pageHeight="1100" math="1" shadow="0">
      <root>
        <mxCell id="0" />
        <mxCell id="1" parent="0" />
        <mxCell id="z5iBcChrrLm1V1ggghq2-243" value="" style="group" vertex="1" connectable="0" parent="1">
          <mxGeometry x="70" y="40" width="455.6565288532697" height="260" as="geometry" />
        </mxCell>
        <mxCell id="z5iBcChrrLm1V1ggghq2-235" value="" style="group;rotation=60;" vertex="1" connectable="0" parent="z5iBcChrrLm1V1ggghq2-243">
          <mxGeometry x="287.33" y="100.5" width="177.67000000000002" height="81" as="geometry" />
        </mxCell>
        <mxCell id="z5iBcChrrLm1V1ggghq2-236" value="" style="shape=curlyBracket;whiteSpace=wrap;html=1;rounded=1;labelPosition=left;verticalLabelPosition=middle;align=right;verticalAlign=middle;fillColor=#f5f5f5;strokeColor=#666666;rotation=-120;fontColor=#333333;opacity=80;" vertex="1" parent="z5iBcChrrLm1V1ggghq2-235">
          <mxGeometry x="19" y="-12" width="8" height="70" as="geometry" />
        </mxCell>
        <mxCell id="z5iBcChrrLm1V1ggghq2-237" value="&lt;div&gt;&lt;font color=&quot;#575757&quot;&gt;$$D$$&lt;/font&gt;&lt;/div&gt;" style="text;html=1;align=center;verticalAlign=middle;whiteSpace=wrap;rounded=0;rotation=45;" vertex="1" parent="z5iBcChrrLm1V1ggghq2-235">
          <mxGeometry x="-2" y="21" width="60" height="30" as="geometry" />
        </mxCell>
        <mxCell id="z5iBcChrrLm1V1ggghq2-240" value="&lt;font color=&quot;#454545&quot;&gt;$$\mathbf{\chi} \in R^{T\times N\times D}$$&lt;/font&gt;" style="text;html=1;align=center;verticalAlign=middle;whiteSpace=wrap;rounded=0;" vertex="1" parent="z5iBcChrrLm1V1ggghq2-235">
          <mxGeometry x="-197.32999999999998" y="51" width="375" height="30" as="geometry" />
        </mxCell>
        <mxCell id="z5iBcChrrLm1V1ggghq2-242" value="" style="group" vertex="1" connectable="0" parent="z5iBcChrrLm1V1ggghq2-243">
          <mxGeometry width="390" height="220" as="geometry" />
        </mxCell>
        <mxCell id="z5iBcChrrLm1V1ggghq2-13" value="" style="shape=curlyBracket;whiteSpace=wrap;html=1;rounded=1;labelPosition=left;verticalLabelPosition=middle;align=right;verticalAlign=middle;fillColor=#dae8fc;strokeColor=#6c8ebf;" vertex="1" parent="z5iBcChrrLm1V1ggghq2-242">
          <mxGeometry x="170" y="27.5" width="30" height="100" as="geometry" />
        </mxCell>
        <mxCell id="z5iBcChrrLm1V1ggghq2-209" value="" style="group" vertex="1" connectable="0" parent="z5iBcChrrLm1V1ggghq2-242">
          <mxGeometry width="170" height="220" as="geometry" />
        </mxCell>
        <mxCell id="z5iBcChrrLm1V1ggghq2-32" value="" style="group;fillColor=none;" vertex="1" connectable="0" parent="z5iBcChrrLm1V1ggghq2-209">
          <mxGeometry width="133" height="110" as="geometry" />
        </mxCell>
        <mxCell id="z5iBcChrrLm1V1ggghq2-118" value="" style="whiteSpace=wrap;html=1;aspect=fixed;strokeColor=none;" vertex="1" parent="z5iBcChrrLm1V1ggghq2-32">
          <mxGeometry x="10" y="-1" width="111" height="111" as="geometry" />
        </mxCell>
        <mxCell id="z5iBcChrrLm1V1ggghq2-10" value="" style="html=1;verticalLabelPosition=bottom;labelBackgroundColor=#ffffff;verticalAlign=top;shadow=0;dashed=0;strokeWidth=1;shape=mxgraph.ios7ui.iconGrid;fillColor=#dae8fc;gridSize=3,3;strokeColor=#6c8ebf;" vertex="1" parent="z5iBcChrrLm1V1ggghq2-32">
          <mxGeometry x="11" width="110" height="110" as="geometry" />
        </mxCell>
        <mxCell id="z5iBcChrrLm1V1ggghq2-18" value="" style="whiteSpace=wrap;html=1;aspect=fixed;fillColor=#f8cecc;strokeColor=none;" vertex="1" parent="z5iBcChrrLm1V1ggghq2-32">
          <mxGeometry x="51" y="40" width="30" height="30" as="geometry" />
        </mxCell>
        <mxCell id="z5iBcChrrLm1V1ggghq2-20" value="" style="whiteSpace=wrap;html=1;aspect=fixed;fillColor=#f8cecc;strokeColor=none;" vertex="1" parent="z5iBcChrrLm1V1ggghq2-32">
          <mxGeometry x="13" y="2.5" width="30" height="30" as="geometry" />
        </mxCell>
        <mxCell id="z5iBcChrrLm1V1ggghq2-22" value="&lt;div&gt;$$x_{i,j,k}$$&lt;/div&gt;" style="text;html=1;align=center;verticalAlign=middle;whiteSpace=wrap;rounded=0;" vertex="1" parent="z5iBcChrrLm1V1ggghq2-32">
          <mxGeometry y="75" width="60" height="30" as="geometry" />
        </mxCell>
        <mxCell id="z5iBcChrrLm1V1ggghq2-24" value="&lt;div&gt;$$x_{i,j,k}$$&lt;/div&gt;" style="text;html=1;align=center;verticalAlign=middle;whiteSpace=wrap;rounded=0;fillColor=none;" vertex="1" parent="z5iBcChrrLm1V1ggghq2-32">
          <mxGeometry y="40" width="60" height="30" as="geometry" />
        </mxCell>
        <mxCell id="z5iBcChrrLm1V1ggghq2-25" value="&lt;div&gt;$$x_{i,j,k}$$&lt;/div&gt;" style="text;html=1;align=center;verticalAlign=middle;whiteSpace=wrap;rounded=0;" vertex="1" parent="z5iBcChrrLm1V1ggghq2-32">
          <mxGeometry x="41" y="3" width="55" height="27" as="geometry" />
        </mxCell>
        <mxCell id="z5iBcChrrLm1V1ggghq2-26" value="&lt;div&gt;$$x_{i,j,k}$$&lt;/div&gt;" style="text;html=1;align=center;verticalAlign=middle;whiteSpace=wrap;rounded=0;" vertex="1" parent="z5iBcChrrLm1V1ggghq2-32">
          <mxGeometry x="36" y="75" width="60" height="30" as="geometry" />
        </mxCell>
        <mxCell id="z5iBcChrrLm1V1ggghq2-28" value="&lt;div&gt;$$x_{i,j,k}$$&lt;/div&gt;" style="text;html=1;align=center;verticalAlign=middle;whiteSpace=wrap;rounded=0;" vertex="1" parent="z5iBcChrrLm1V1ggghq2-32">
          <mxGeometry x="73" y="40" width="60" height="30" as="geometry" />
        </mxCell>
        <mxCell id="z5iBcChrrLm1V1ggghq2-31" value="&lt;div&gt;$$x_{i,j,k}$$&lt;/div&gt;" style="text;html=1;align=center;verticalAlign=middle;whiteSpace=wrap;rounded=0;" vertex="1" parent="z5iBcChrrLm1V1ggghq2-32">
          <mxGeometry x="75.5" y="3" width="55" height="27" as="geometry" />
        </mxCell>
        <mxCell id="z5iBcChrrLm1V1ggghq2-207" value="&lt;div&gt;$$x_{i,j,k}$$&lt;/div&gt;" style="text;html=1;align=center;verticalAlign=middle;whiteSpace=wrap;rounded=0;" vertex="1" parent="z5iBcChrrLm1V1ggghq2-32">
          <mxGeometry x="72.5" y="76" width="60" height="30" as="geometry" />
        </mxCell>
        <mxCell id="z5iBcChrrLm1V1ggghq2-178" value="" style="group;fillColor=none;" vertex="1" connectable="0" parent="z5iBcChrrLm1V1ggghq2-209">
          <mxGeometry x="17" y="20" width="133" height="110" as="geometry" />
        </mxCell>
        <mxCell id="z5iBcChrrLm1V1ggghq2-179" value="" style="whiteSpace=wrap;html=1;aspect=fixed;strokeColor=none;" vertex="1" parent="z5iBcChrrLm1V1ggghq2-178">
          <mxGeometry x="10" y="-1" width="111" height="111" as="geometry" />
        </mxCell>
        <mxCell id="z5iBcChrrLm1V1ggghq2-180" value="" style="html=1;verticalLabelPosition=bottom;labelBackgroundColor=#ffffff;verticalAlign=top;shadow=0;dashed=0;strokeWidth=1;shape=mxgraph.ios7ui.iconGrid;fillColor=#dae8fc;gridSize=3,3;strokeColor=#6c8ebf;" vertex="1" parent="z5iBcChrrLm1V1ggghq2-178">
          <mxGeometry x="11" width="110" height="110" as="geometry" />
        </mxCell>
        <mxCell id="z5iBcChrrLm1V1ggghq2-181" value="" style="whiteSpace=wrap;html=1;aspect=fixed;fillColor=#f8cecc;strokeColor=none;" vertex="1" parent="z5iBcChrrLm1V1ggghq2-178">
          <mxGeometry x="51" y="40" width="30" height="30" as="geometry" />
        </mxCell>
        <mxCell id="z5iBcChrrLm1V1ggghq2-182" value="" style="whiteSpace=wrap;html=1;aspect=fixed;fillColor=#f8cecc;strokeColor=none;" vertex="1" parent="z5iBcChrrLm1V1ggghq2-178">
          <mxGeometry x="88" y="78" width="30" height="30" as="geometry" />
        </mxCell>
        <mxCell id="z5iBcChrrLm1V1ggghq2-183" value="&lt;div&gt;$$x_{i,j,k}$$&lt;/div&gt;" style="text;html=1;align=center;verticalAlign=middle;whiteSpace=wrap;rounded=0;" vertex="1" parent="z5iBcChrrLm1V1ggghq2-178">
          <mxGeometry y="3" width="60" height="30" as="geometry" />
        </mxCell>
        <mxCell id="z5iBcChrrLm1V1ggghq2-184" value="&lt;div&gt;$$x_{i,j,k}$$&lt;/div&gt;" style="text;html=1;align=center;verticalAlign=middle;whiteSpace=wrap;rounded=0;fillColor=none;" vertex="1" parent="z5iBcChrrLm1V1ggghq2-178">
          <mxGeometry y="40" width="60" height="30" as="geometry" />
        </mxCell>
        <mxCell id="z5iBcChrrLm1V1ggghq2-185" value="&lt;div&gt;$$x_{i,j,k}$$&lt;/div&gt;" style="text;html=1;align=center;verticalAlign=middle;whiteSpace=wrap;rounded=0;" vertex="1" parent="z5iBcChrrLm1V1ggghq2-178">
          <mxGeometry x="41" y="3" width="55" height="27" as="geometry" />
        </mxCell>
        <mxCell id="z5iBcChrrLm1V1ggghq2-186" value="&lt;div&gt;$$x_{i,j,k}$$&lt;/div&gt;" style="text;html=1;align=center;verticalAlign=middle;whiteSpace=wrap;rounded=0;" vertex="1" parent="z5iBcChrrLm1V1ggghq2-178">
          <mxGeometry x="36" y="75" width="60" height="30" as="geometry" />
        </mxCell>
        <mxCell id="z5iBcChrrLm1V1ggghq2-187" value="&lt;div&gt;$$x_{i,j,k}$$&lt;/div&gt;" style="text;html=1;align=center;verticalAlign=middle;whiteSpace=wrap;rounded=0;" vertex="1" parent="z5iBcChrrLm1V1ggghq2-178">
          <mxGeometry x="73" y="40" width="60" height="30" as="geometry" />
        </mxCell>
        <mxCell id="z5iBcChrrLm1V1ggghq2-188" value="" style="whiteSpace=wrap;html=1;aspect=fixed;fillColor=#f8cecc;strokeColor=none;" vertex="1" parent="z5iBcChrrLm1V1ggghq2-178">
          <mxGeometry x="14" y="78" width="30" height="30" as="geometry" />
        </mxCell>
        <mxCell id="z5iBcChrrLm1V1ggghq2-189" value="&lt;div&gt;$$x_{i,j,k}$$&lt;/div&gt;" style="text;html=1;align=center;verticalAlign=middle;whiteSpace=wrap;rounded=0;" vertex="1" parent="z5iBcChrrLm1V1ggghq2-178">
          <mxGeometry x="75.5" y="3" width="55" height="27" as="geometry" />
        </mxCell>
        <mxCell id="z5iBcChrrLm1V1ggghq2-192" value="" style="group;fillColor=none;fontColor=#474747;" vertex="1" connectable="0" parent="z5iBcChrrLm1V1ggghq2-209">
          <mxGeometry x="37" y="45" width="133" height="175" as="geometry" />
        </mxCell>
        <mxCell id="z5iBcChrrLm1V1ggghq2-193" value="" style="whiteSpace=wrap;html=1;aspect=fixed;strokeColor=none;" vertex="1" parent="z5iBcChrrLm1V1ggghq2-192">
          <mxGeometry x="10" y="-1" width="111" height="111" as="geometry" />
        </mxCell>
        <mxCell id="z5iBcChrrLm1V1ggghq2-194" value="" style="html=1;verticalLabelPosition=bottom;labelBackgroundColor=#ffffff;verticalAlign=top;shadow=0;dashed=0;strokeWidth=1;shape=mxgraph.ios7ui.iconGrid;fillColor=#dae8fc;gridSize=3,3;strokeColor=#6c8ebf;" vertex="1" parent="z5iBcChrrLm1V1ggghq2-192">
          <mxGeometry x="11" width="110" height="110" as="geometry" />
        </mxCell>
        <mxCell id="z5iBcChrrLm1V1ggghq2-195" value="" style="whiteSpace=wrap;html=1;aspect=fixed;fillColor=#f8cecc;strokeColor=none;" vertex="1" parent="z5iBcChrrLm1V1ggghq2-192">
          <mxGeometry x="51" y="40" width="30" height="30" as="geometry" />
        </mxCell>
        <mxCell id="z5iBcChrrLm1V1ggghq2-196" value="" style="whiteSpace=wrap;html=1;aspect=fixed;fillColor=#f8cecc;strokeColor=none;" vertex="1" parent="z5iBcChrrLm1V1ggghq2-192">
          <mxGeometry x="88" y="78" width="30" height="30" as="geometry" />
        </mxCell>
        <mxCell id="z5iBcChrrLm1V1ggghq2-197" value="&lt;div&gt;$$x_{i,j,k}$$&lt;/div&gt;" style="text;html=1;align=center;verticalAlign=middle;whiteSpace=wrap;rounded=0;" vertex="1" parent="z5iBcChrrLm1V1ggghq2-192">
          <mxGeometry y="3" width="60" height="30" as="geometry" />
        </mxCell>
        <mxCell id="z5iBcChrrLm1V1ggghq2-199" value="&lt;div&gt;$$x_{i,j,k}$$&lt;/div&gt;" style="text;html=1;align=center;verticalAlign=middle;whiteSpace=wrap;rounded=0;" vertex="1" parent="z5iBcChrrLm1V1ggghq2-192">
          <mxGeometry x="41" y="3" width="55" height="27" as="geometry" />
        </mxCell>
        <mxCell id="z5iBcChrrLm1V1ggghq2-200" value="&lt;div&gt;$$x_{i,j,k}$$&lt;/div&gt;" style="text;html=1;align=center;verticalAlign=middle;whiteSpace=wrap;rounded=0;" vertex="1" parent="z5iBcChrrLm1V1ggghq2-192">
          <mxGeometry x="36" y="75" width="60" height="30" as="geometry" />
        </mxCell>
        <mxCell id="z5iBcChrrLm1V1ggghq2-201" value="&lt;div&gt;$$x_{i,j,k}$$&lt;/div&gt;" style="text;html=1;align=center;verticalAlign=middle;whiteSpace=wrap;rounded=0;" vertex="1" parent="z5iBcChrrLm1V1ggghq2-192">
          <mxGeometry x="73" y="40" width="60" height="30" as="geometry" />
        </mxCell>
        <mxCell id="z5iBcChrrLm1V1ggghq2-202" value="" style="whiteSpace=wrap;html=1;aspect=fixed;fillColor=#f8cecc;strokeColor=none;" vertex="1" parent="z5iBcChrrLm1V1ggghq2-192">
          <mxGeometry x="13" y="39.5" width="30" height="30" as="geometry" />
        </mxCell>
        <mxCell id="z5iBcChrrLm1V1ggghq2-203" value="&lt;div&gt;$$x_{i,j,k}$$&lt;/div&gt;" style="text;html=1;align=center;verticalAlign=middle;whiteSpace=wrap;rounded=0;" vertex="1" parent="z5iBcChrrLm1V1ggghq2-192">
          <mxGeometry x="75.5" y="3" width="55" height="27" as="geometry" />
        </mxCell>
        <mxCell id="z5iBcChrrLm1V1ggghq2-198" value="&lt;div&gt;$$x_{i,j,k}$$&lt;/div&gt;" style="text;html=1;align=center;verticalAlign=middle;whiteSpace=wrap;rounded=0;fillColor=none;" vertex="1" parent="z5iBcChrrLm1V1ggghq2-192">
          <mxGeometry x="-2" y="78" width="60" height="30" as="geometry" />
        </mxCell>
        <mxCell id="z5iBcChrrLm1V1ggghq2-211" value="&lt;font style=&quot;font-size: 8px;&quot; color=&quot;#4d4d4d&quot;&gt;Missing values&lt;/font&gt;" style="text;html=1;align=center;verticalAlign=middle;whiteSpace=wrap;rounded=0;" vertex="1" parent="z5iBcChrrLm1V1ggghq2-192">
          <mxGeometry x="43" y="110" width="60" height="30" as="geometry" />
        </mxCell>
        <mxCell id="z5iBcChrrLm1V1ggghq2-214" value="" style="endArrow=openThin;html=1;rounded=0;curved=1;fillColor=#f8cecc;strokeColor=#b85450;opacity=60;entryX=1.044;entryY=0.939;entryDx=0;entryDy=0;entryPerimeter=0;endFill=0;" edge="1" parent="z5iBcChrrLm1V1ggghq2-192" target="z5iBcChrrLm1V1ggghq2-200">
          <mxGeometry width="50" height="50" relative="1" as="geometry">
            <mxPoint x="83" y="122.5" as="sourcePoint" />
            <mxPoint x="103" y="102.5" as="targetPoint" />
          </mxGeometry>
        </mxCell>
        <mxCell id="z5iBcChrrLm1V1ggghq2-324" value="&lt;div style=&quot;font-size: 11px;&quot;&gt;&lt;font style=&quot;font-size: 11px;&quot; color=&quot;#3b3b3b&quot;&gt;Data&lt;/font&gt;&lt;/div&gt;" style="text;html=1;align=center;verticalAlign=middle;whiteSpace=wrap;rounded=0;" vertex="1" parent="z5iBcChrrLm1V1ggghq2-192">
          <mxGeometry x="25" y="139" width="60" height="30" as="geometry" />
        </mxCell>
        <mxCell id="z5iBcChrrLm1V1ggghq2-225" value="" style="group" vertex="1" connectable="0" parent="z5iBcChrrLm1V1ggghq2-242">
          <mxGeometry x="215" width="133.32999999999998" height="200" as="geometry" />
        </mxCell>
        <mxCell id="z5iBcChrrLm1V1ggghq2-231" value="" style="group;rotation=115;" vertex="1" connectable="0" parent="z5iBcChrrLm1V1ggghq2-225">
          <mxGeometry x="-10.330000000000041" y="103" width="60" height="70" as="geometry" />
        </mxCell>
        <mxCell id="z5iBcChrrLm1V1ggghq2-228" value="" style="shape=curlyBracket;whiteSpace=wrap;html=1;rounded=1;labelPosition=left;verticalLabelPosition=middle;align=right;verticalAlign=middle;fillColor=#f5f5f5;strokeColor=#666666;rotation=-65;fontColor=#333333;opacity=80;" vertex="1" parent="z5iBcChrrLm1V1ggghq2-231">
          <mxGeometry x="32" y="-14" width="8" height="70" as="geometry" />
        </mxCell>
        <mxCell id="z5iBcChrrLm1V1ggghq2-230" value="&lt;font color=&quot;#5e5e5e&quot;&gt;$$T$$&lt;/font&gt;" style="text;html=1;align=center;verticalAlign=middle;whiteSpace=wrap;rounded=0;rotation=-75;" vertex="1" parent="z5iBcChrrLm1V1ggghq2-231">
          <mxGeometry x="3" y="16.5" width="60" height="30" as="geometry" />
        </mxCell>
        <mxCell id="z5iBcChrrLm1V1ggghq2-241" value="" style="group" vertex="1" connectable="0" parent="z5iBcChrrLm1V1ggghq2-225">
          <mxGeometry width="119.99999999999999" height="130" as="geometry" />
        </mxCell>
        <mxCell id="z5iBcChrrLm1V1ggghq2-15" value="" style="html=1;shape=mxgraph.basic.isocube;isoAngle=15;fillColor=#f8cecc;strokeColor=#b85450;" vertex="1" parent="z5iBcChrrLm1V1ggghq2-241">
          <mxGeometry x="73.33333333333331" y="65" width="26.666666666666664" height="26" as="geometry" />
        </mxCell>
        <mxCell id="z5iBcChrrLm1V1ggghq2-16" value="" style="html=1;shape=mxgraph.basic.isocube;isoAngle=15;fillColor=#f8cecc;strokeColor=#b85450;" vertex="1" parent="z5iBcChrrLm1V1ggghq2-241">
          <mxGeometry x="13.333333333333332" y="52" width="26.666666666666664" height="26" as="geometry" />
        </mxCell>
        <mxCell id="z5iBcChrrLm1V1ggghq2-17" value="" style="html=1;shape=mxgraph.basic.isocube;isoAngle=15;fillColor=#f8cecc;strokeColor=#b85450;" vertex="1" parent="z5iBcChrrLm1V1ggghq2-241">
          <mxGeometry x="46.66666666666666" y="104" width="26.666666666666664" height="26" as="geometry" />
        </mxCell>
        <mxCell id="z5iBcChrrLm1V1ggghq2-12" value="" style="html=1;whiteSpace=wrap;shape=isoCube2;backgroundOutline=1;isoAngle=15;fillColor=#DAE8FC;strokeColor=#6c8ebf;opacity=50;fillStyle=auto;" vertex="1" parent="z5iBcChrrLm1V1ggghq2-241">
          <mxGeometry width="119.99999999999999" height="130" as="geometry" />
        </mxCell>
        <mxCell id="z5iBcChrrLm1V1ggghq2-232" value="" style="group" vertex="1" connectable="0" parent="z5iBcChrrLm1V1ggghq2-242">
          <mxGeometry x="330" y="29.5" width="60" height="70" as="geometry" />
        </mxCell>
        <mxCell id="z5iBcChrrLm1V1ggghq2-233" value="" style="shape=curlyBracket;whiteSpace=wrap;html=1;rounded=1;labelPosition=left;verticalLabelPosition=middle;align=right;verticalAlign=middle;fillColor=#f5f5f5;strokeColor=#666666;rotation=-180;fontColor=#333333;opacity=80;" vertex="1" parent="z5iBcChrrLm1V1ggghq2-232">
          <mxGeometry x="11" width="8" height="70" as="geometry" />
        </mxCell>
        <mxCell id="z5iBcChrrLm1V1ggghq2-234" value="&lt;div&gt;&lt;font color=&quot;#575757&quot;&gt;$$N$$&lt;/font&gt;&lt;/div&gt;" style="text;html=1;align=center;verticalAlign=middle;whiteSpace=wrap;rounded=0;" vertex="1" parent="z5iBcChrrLm1V1ggghq2-232">
          <mxGeometry y="22" width="60" height="30" as="geometry" />
        </mxCell>
        <mxCell id="z5iBcChrrLm1V1ggghq2-323" value="" style="endArrow=classic;html=1;rounded=0;fillColor=#f5f5f5;strokeColor=#666666;" edge="1" parent="z5iBcChrrLm1V1ggghq2-243">
          <mxGeometry width="50" height="50" relative="1" as="geometry">
            <mxPoint x="356" y="90" as="sourcePoint" />
            <mxPoint x="416" y="90" as="targetPoint" />
          </mxGeometry>
        </mxCell>
        <mxCell id="z5iBcChrrLm1V1ggghq2-375" value="&lt;font face=&quot;Georgia&quot;&gt;Loss&lt;/font&gt;" style="rounded=1;whiteSpace=wrap;html=1;fillColor=#f5f5f5;fontColor=#333333;strokeColor=#666666;movable=1;resizable=1;rotatable=1;deletable=1;editable=1;locked=0;connectable=1;" vertex="1" parent="z5iBcChrrLm1V1ggghq2-243">
          <mxGeometry x="50" y="237" width="80" height="30" as="geometry" />
        </mxCell>
        <mxCell id="z5iBcChrrLm1V1ggghq2-376" value="" style="endArrow=classic;html=1;rounded=0;fillColor=#f5f5f5;strokeColor=#666666;entryX=0.533;entryY=0.003;entryDx=0;entryDy=0;entryPerimeter=0;exitX=0.5;exitY=1;exitDx=0;exitDy=0;" edge="1" parent="z5iBcChrrLm1V1ggghq2-243" source="z5iBcChrrLm1V1ggghq2-324" target="z5iBcChrrLm1V1ggghq2-375">
          <mxGeometry width="50" height="50" relative="1" as="geometry">
            <mxPoint x="130" y="220" as="sourcePoint" />
            <mxPoint x="100" y="230" as="targetPoint" />
          </mxGeometry>
        </mxCell>
        <mxCell id="z5iBcChrrLm1V1ggghq2-284" value="" style="group" vertex="1" connectable="0" parent="1">
          <mxGeometry x="489" y="34" width="170" height="215" as="geometry" />
        </mxCell>
        <mxCell id="z5iBcChrrLm1V1ggghq2-285" value="" style="group;fillColor=none;" vertex="1" connectable="0" parent="z5iBcChrrLm1V1ggghq2-284">
          <mxGeometry width="133" height="110" as="geometry" />
        </mxCell>
        <mxCell id="z5iBcChrrLm1V1ggghq2-286" value="" style="whiteSpace=wrap;html=1;aspect=fixed;strokeColor=none;" vertex="1" parent="z5iBcChrrLm1V1ggghq2-285">
          <mxGeometry x="10" y="-1" width="111" height="111" as="geometry" />
        </mxCell>
        <mxCell id="z5iBcChrrLm1V1ggghq2-287" value="" style="html=1;verticalLabelPosition=bottom;labelBackgroundColor=#ffffff;verticalAlign=top;shadow=0;dashed=0;strokeWidth=1;shape=mxgraph.ios7ui.iconGrid;fillColor=#dae8fc;gridSize=3,3;strokeColor=#6c8ebf;" vertex="1" parent="z5iBcChrrLm1V1ggghq2-285">
          <mxGeometry x="11" width="110" height="110" as="geometry" />
        </mxCell>
        <mxCell id="z5iBcChrrLm1V1ggghq2-288" value="" style="whiteSpace=wrap;html=1;aspect=fixed;fillColor=#f8cecc;strokeColor=none;" vertex="1" parent="z5iBcChrrLm1V1ggghq2-285">
          <mxGeometry x="51" y="40" width="30" height="30" as="geometry" />
        </mxCell>
        <mxCell id="z5iBcChrrLm1V1ggghq2-289" value="0" style="whiteSpace=wrap;html=1;aspect=fixed;fillColor=#f8cecc;strokeColor=none;" vertex="1" parent="z5iBcChrrLm1V1ggghq2-285">
          <mxGeometry x="13" y="2.5" width="30" height="30" as="geometry" />
        </mxCell>
        <mxCell id="z5iBcChrrLm1V1ggghq2-290" value="1" style="text;html=1;align=center;verticalAlign=middle;whiteSpace=wrap;rounded=0;" vertex="1" parent="z5iBcChrrLm1V1ggghq2-285">
          <mxGeometry y="75" width="60" height="30" as="geometry" />
        </mxCell>
        <mxCell id="z5iBcChrrLm1V1ggghq2-291" value="1" style="text;html=1;align=center;verticalAlign=middle;whiteSpace=wrap;rounded=0;fillColor=none;" vertex="1" parent="z5iBcChrrLm1V1ggghq2-285">
          <mxGeometry y="40" width="60" height="30" as="geometry" />
        </mxCell>
        <mxCell id="z5iBcChrrLm1V1ggghq2-292" value="1" style="text;html=1;align=center;verticalAlign=middle;whiteSpace=wrap;rounded=0;" vertex="1" parent="z5iBcChrrLm1V1ggghq2-285">
          <mxGeometry x="41" y="3" width="55" height="27" as="geometry" />
        </mxCell>
        <mxCell id="z5iBcChrrLm1V1ggghq2-293" value="&lt;div&gt;$$x_{i,j,k}$$&lt;/div&gt;" style="text;html=1;align=center;verticalAlign=middle;whiteSpace=wrap;rounded=0;" vertex="1" parent="z5iBcChrrLm1V1ggghq2-285">
          <mxGeometry x="36" y="75" width="60" height="30" as="geometry" />
        </mxCell>
        <mxCell id="z5iBcChrrLm1V1ggghq2-294" value="&lt;div&gt;$$x_{i,j,k}$$&lt;/div&gt;" style="text;html=1;align=center;verticalAlign=middle;whiteSpace=wrap;rounded=0;" vertex="1" parent="z5iBcChrrLm1V1ggghq2-285">
          <mxGeometry x="73" y="40" width="60" height="30" as="geometry" />
        </mxCell>
        <mxCell id="z5iBcChrrLm1V1ggghq2-295" value="1" style="text;html=1;align=center;verticalAlign=middle;whiteSpace=wrap;rounded=0;" vertex="1" parent="z5iBcChrrLm1V1ggghq2-285">
          <mxGeometry x="75.5" y="3" width="55" height="27" as="geometry" />
        </mxCell>
        <mxCell id="z5iBcChrrLm1V1ggghq2-296" value="&lt;div&gt;$$x_{i,j,k}$$&lt;/div&gt;" style="text;html=1;align=center;verticalAlign=middle;whiteSpace=wrap;rounded=0;" vertex="1" parent="z5iBcChrrLm1V1ggghq2-285">
          <mxGeometry x="72.5" y="76" width="60" height="30" as="geometry" />
        </mxCell>
        <mxCell id="z5iBcChrrLm1V1ggghq2-297" value="" style="group;fillColor=none;" vertex="1" connectable="0" parent="z5iBcChrrLm1V1ggghq2-284">
          <mxGeometry x="17" y="20" width="133" height="110" as="geometry" />
        </mxCell>
        <mxCell id="z5iBcChrrLm1V1ggghq2-298" value="" style="whiteSpace=wrap;html=1;aspect=fixed;strokeColor=none;" vertex="1" parent="z5iBcChrrLm1V1ggghq2-297">
          <mxGeometry x="10" y="-1" width="111" height="111" as="geometry" />
        </mxCell>
        <mxCell id="z5iBcChrrLm1V1ggghq2-299" value="" style="html=1;verticalLabelPosition=bottom;labelBackgroundColor=#ffffff;verticalAlign=top;shadow=0;dashed=0;strokeWidth=1;shape=mxgraph.ios7ui.iconGrid;fillColor=#dae8fc;gridSize=3,3;strokeColor=#6c8ebf;" vertex="1" parent="z5iBcChrrLm1V1ggghq2-297">
          <mxGeometry x="11" width="110" height="110" as="geometry" />
        </mxCell>
        <mxCell id="z5iBcChrrLm1V1ggghq2-300" value="" style="whiteSpace=wrap;html=1;aspect=fixed;fillColor=#f8cecc;strokeColor=none;" vertex="1" parent="z5iBcChrrLm1V1ggghq2-297">
          <mxGeometry x="51" y="40" width="30" height="30" as="geometry" />
        </mxCell>
        <mxCell id="z5iBcChrrLm1V1ggghq2-301" value="" style="whiteSpace=wrap;html=1;aspect=fixed;fillColor=#f8cecc;strokeColor=none;" vertex="1" parent="z5iBcChrrLm1V1ggghq2-297">
          <mxGeometry x="88" y="78" width="30" height="30" as="geometry" />
        </mxCell>
        <mxCell id="z5iBcChrrLm1V1ggghq2-302" value="1" style="text;html=1;align=center;verticalAlign=middle;whiteSpace=wrap;rounded=0;" vertex="1" parent="z5iBcChrrLm1V1ggghq2-297">
          <mxGeometry y="3" width="60" height="27" as="geometry" />
        </mxCell>
        <mxCell id="z5iBcChrrLm1V1ggghq2-303" value="1" style="text;html=1;align=center;verticalAlign=middle;whiteSpace=wrap;rounded=0;fillColor=none;" vertex="1" parent="z5iBcChrrLm1V1ggghq2-297">
          <mxGeometry y="40" width="60" height="30" as="geometry" />
        </mxCell>
        <mxCell id="z5iBcChrrLm1V1ggghq2-304" value="1" style="text;html=1;align=center;verticalAlign=middle;whiteSpace=wrap;rounded=0;" vertex="1" parent="z5iBcChrrLm1V1ggghq2-297">
          <mxGeometry x="41" y="3" width="55" height="27" as="geometry" />
        </mxCell>
        <mxCell id="z5iBcChrrLm1V1ggghq2-305" value="&lt;div&gt;$$x_{i,j,k}$$&lt;/div&gt;" style="text;html=1;align=center;verticalAlign=middle;whiteSpace=wrap;rounded=0;" vertex="1" parent="z5iBcChrrLm1V1ggghq2-297">
          <mxGeometry x="36" y="75" width="60" height="30" as="geometry" />
        </mxCell>
        <mxCell id="z5iBcChrrLm1V1ggghq2-306" value="&lt;div&gt;$$x_{i,j,k}$$&lt;/div&gt;" style="text;html=1;align=center;verticalAlign=middle;whiteSpace=wrap;rounded=0;" vertex="1" parent="z5iBcChrrLm1V1ggghq2-297">
          <mxGeometry x="73" y="40" width="60" height="30" as="geometry" />
        </mxCell>
        <mxCell id="z5iBcChrrLm1V1ggghq2-307" value="0" style="whiteSpace=wrap;html=1;aspect=fixed;fillColor=#f8cecc;strokeColor=none;" vertex="1" parent="z5iBcChrrLm1V1ggghq2-297">
          <mxGeometry x="14" y="78" width="30" height="30" as="geometry" />
        </mxCell>
        <mxCell id="z5iBcChrrLm1V1ggghq2-308" value="1" style="text;html=1;align=center;verticalAlign=middle;whiteSpace=wrap;rounded=0;" vertex="1" parent="z5iBcChrrLm1V1ggghq2-297">
          <mxGeometry x="75.5" y="3" width="55" height="27" as="geometry" />
        </mxCell>
        <mxCell id="z5iBcChrrLm1V1ggghq2-309" value="" style="group;fillColor=none;fontColor=#474747;" vertex="1" connectable="0" parent="z5iBcChrrLm1V1ggghq2-284">
          <mxGeometry x="37" y="45" width="133" height="170" as="geometry" />
        </mxCell>
        <mxCell id="z5iBcChrrLm1V1ggghq2-310" value="" style="whiteSpace=wrap;html=1;aspect=fixed;strokeColor=none;" vertex="1" parent="z5iBcChrrLm1V1ggghq2-309">
          <mxGeometry x="10" y="-1" width="111" height="111" as="geometry" />
        </mxCell>
        <mxCell id="z5iBcChrrLm1V1ggghq2-311" value="" style="html=1;verticalLabelPosition=bottom;labelBackgroundColor=#ffffff;verticalAlign=top;shadow=0;dashed=0;strokeWidth=1;shape=mxgraph.ios7ui.iconGrid;fillColor=#dae8fc;gridSize=3,3;strokeColor=#6c8ebf;" vertex="1" parent="z5iBcChrrLm1V1ggghq2-309">
          <mxGeometry x="11" width="110" height="110" as="geometry" />
        </mxCell>
        <mxCell id="z5iBcChrrLm1V1ggghq2-312" value="0" style="whiteSpace=wrap;html=1;aspect=fixed;fillColor=#f8cecc;strokeColor=none;" vertex="1" parent="z5iBcChrrLm1V1ggghq2-309">
          <mxGeometry x="51" y="40" width="30" height="30" as="geometry" />
        </mxCell>
        <mxCell id="z5iBcChrrLm1V1ggghq2-313" value="0" style="whiteSpace=wrap;html=1;aspect=fixed;fillColor=#f8cecc;strokeColor=none;" vertex="1" parent="z5iBcChrrLm1V1ggghq2-309">
          <mxGeometry x="88" y="78" width="30" height="30" as="geometry" />
        </mxCell>
        <mxCell id="z5iBcChrrLm1V1ggghq2-314" value="1" style="text;html=1;align=center;verticalAlign=middle;whiteSpace=wrap;rounded=0;" vertex="1" parent="z5iBcChrrLm1V1ggghq2-309">
          <mxGeometry y="3" width="60" height="30" as="geometry" />
        </mxCell>
        <mxCell id="z5iBcChrrLm1V1ggghq2-315" value="1" style="text;html=1;align=center;verticalAlign=middle;whiteSpace=wrap;rounded=0;" vertex="1" parent="z5iBcChrrLm1V1ggghq2-309">
          <mxGeometry x="41" y="3" width="55" height="27" as="geometry" />
        </mxCell>
        <mxCell id="z5iBcChrrLm1V1ggghq2-316" value="1" style="text;html=1;align=center;verticalAlign=middle;whiteSpace=wrap;rounded=0;" vertex="1" parent="z5iBcChrrLm1V1ggghq2-309">
          <mxGeometry x="36" y="75" width="60" height="30" as="geometry" />
        </mxCell>
        <mxCell id="z5iBcChrrLm1V1ggghq2-317" value="1" style="text;html=1;align=center;verticalAlign=middle;whiteSpace=wrap;rounded=0;" vertex="1" parent="z5iBcChrrLm1V1ggghq2-309">
          <mxGeometry x="73" y="40" width="60" height="30" as="geometry" />
        </mxCell>
        <mxCell id="z5iBcChrrLm1V1ggghq2-318" value="0" style="whiteSpace=wrap;html=1;aspect=fixed;fillColor=#f8cecc;strokeColor=none;" vertex="1" parent="z5iBcChrrLm1V1ggghq2-309">
          <mxGeometry x="13" y="39.5" width="30" height="30" as="geometry" />
        </mxCell>
        <mxCell id="z5iBcChrrLm1V1ggghq2-319" value="1" style="text;html=1;align=center;verticalAlign=middle;whiteSpace=wrap;rounded=0;" vertex="1" parent="z5iBcChrrLm1V1ggghq2-309">
          <mxGeometry x="75.5" y="3" width="55" height="27" as="geometry" />
        </mxCell>
        <mxCell id="z5iBcChrrLm1V1ggghq2-320" value="1" style="text;html=1;align=center;verticalAlign=middle;whiteSpace=wrap;rounded=0;fillColor=none;" vertex="1" parent="z5iBcChrrLm1V1ggghq2-309">
          <mxGeometry x="-2" y="78" width="60" height="30" as="geometry" />
        </mxCell>
        <mxCell id="z5iBcChrrLm1V1ggghq2-321" value="&lt;font style=&quot;font-size: 8px;&quot; color=&quot;#4d4d4d&quot;&gt;Missing values&lt;/font&gt;" style="text;html=1;align=center;verticalAlign=middle;whiteSpace=wrap;rounded=0;" vertex="1" parent="z5iBcChrrLm1V1ggghq2-309">
          <mxGeometry x="43" y="110" width="60" height="30" as="geometry" />
        </mxCell>
        <mxCell id="z5iBcChrrLm1V1ggghq2-322" value="" style="endArrow=openThin;html=1;rounded=0;curved=1;fillColor=#f8cecc;strokeColor=#b85450;opacity=60;entryX=1.044;entryY=0.939;entryDx=0;entryDy=0;entryPerimeter=0;endFill=0;" edge="1" parent="z5iBcChrrLm1V1ggghq2-309" target="z5iBcChrrLm1V1ggghq2-316">
          <mxGeometry width="50" height="50" relative="1" as="geometry">
            <mxPoint x="83" y="122.5" as="sourcePoint" />
            <mxPoint x="103" y="102.5" as="targetPoint" />
          </mxGeometry>
        </mxCell>
        <mxCell id="z5iBcChrrLm1V1ggghq2-325" value="&lt;div&gt;&lt;font style=&quot;font-size: 11px;&quot; color=&quot;#404040&quot;&gt;Mask&lt;/font&gt;&lt;/div&gt;" style="text;html=1;align=center;verticalAlign=middle;whiteSpace=wrap;rounded=0;" vertex="1" parent="z5iBcChrrLm1V1ggghq2-309">
          <mxGeometry x="28" y="140" width="60" height="30" as="geometry" />
        </mxCell>
        <mxCell id="z5iBcChrrLm1V1ggghq2-328" value="&lt;font style=&quot;font-size: 13px;&quot; face=&quot;Georgia&quot;&gt;Generator&lt;br&gt;&lt;/font&gt;" style="rounded=1;whiteSpace=wrap;html=1;glass=0;fillColor=#d5e8d4;strokeColor=#82b366;shadow=0;" vertex="1" parent="1">
          <mxGeometry x="320" y="300" width="113" height="40" as="geometry" />
        </mxCell>
        <mxCell id="z5iBcChrrLm1V1ggghq2-329" value="" style="endArrow=classic;html=1;rounded=0;fillColor=#f5f5f5;strokeColor=#666666;endFill=1;" edge="1" parent="1">
          <mxGeometry width="50" height="50" relative="1" as="geometry">
            <mxPoint x="230" y="230" as="sourcePoint" />
            <mxPoint x="330" y="290" as="targetPoint" />
          </mxGeometry>
        </mxCell>
        <mxCell id="z5iBcChrrLm1V1ggghq2-330" value="" style="endArrow=classic;html=1;rounded=0;exitX=0.936;exitY=1.183;exitDx=0;exitDy=0;exitPerimeter=0;fillColor=#f5f5f5;strokeColor=#666666;endFill=1;" edge="1" parent="1" source="z5iBcChrrLm1V1ggghq2-240">
          <mxGeometry width="50" height="50" relative="1" as="geometry">
            <mxPoint x="240" y="240" as="sourcePoint" />
            <mxPoint x="430" y="290" as="targetPoint" />
          </mxGeometry>
        </mxCell>
        <mxCell id="z5iBcChrrLm1V1ggghq2-331" value="" style="group" vertex="1" connectable="0" parent="1">
          <mxGeometry x="90" y="320" width="170" height="290" as="geometry" />
        </mxCell>
        <mxCell id="z5iBcChrrLm1V1ggghq2-332" value="" style="group;fillColor=none;" vertex="1" connectable="0" parent="z5iBcChrrLm1V1ggghq2-331">
          <mxGeometry y="22" width="133" height="110" as="geometry" />
        </mxCell>
        <mxCell id="z5iBcChrrLm1V1ggghq2-333" value="" style="whiteSpace=wrap;html=1;aspect=fixed;strokeColor=none;" vertex="1" parent="z5iBcChrrLm1V1ggghq2-332">
          <mxGeometry x="10" y="-1" width="111" height="111" as="geometry" />
        </mxCell>
        <mxCell id="z5iBcChrrLm1V1ggghq2-334" value="" style="html=1;verticalLabelPosition=bottom;labelBackgroundColor=#ffffff;verticalAlign=top;shadow=0;dashed=0;strokeWidth=1;shape=mxgraph.ios7ui.iconGrid;fillColor=#dae8fc;gridSize=3,3;strokeColor=#6c8ebf;" vertex="1" parent="z5iBcChrrLm1V1ggghq2-332">
          <mxGeometry x="11" width="110" height="110" as="geometry" />
        </mxCell>
        <mxCell id="z5iBcChrrLm1V1ggghq2-335" value="" style="whiteSpace=wrap;html=1;aspect=fixed;fillColor=#f8cecc;strokeColor=none;" vertex="1" parent="z5iBcChrrLm1V1ggghq2-332">
          <mxGeometry x="51" y="40" width="30" height="30" as="geometry" />
        </mxCell>
        <mxCell id="z5iBcChrrLm1V1ggghq2-336" value="$$y_{i,j,k}$$" style="whiteSpace=wrap;html=1;aspect=fixed;fillColor=#f8cecc;strokeColor=none;" vertex="1" parent="z5iBcChrrLm1V1ggghq2-332">
          <mxGeometry x="13" y="2.5" width="30" height="30" as="geometry" />
        </mxCell>
        <mxCell id="z5iBcChrrLm1V1ggghq2-337" value="&lt;div&gt;$$x_{i,j,k}$$&lt;/div&gt;" style="text;html=1;align=center;verticalAlign=middle;whiteSpace=wrap;rounded=0;" vertex="1" parent="z5iBcChrrLm1V1ggghq2-332">
          <mxGeometry y="75" width="60" height="30" as="geometry" />
        </mxCell>
        <mxCell id="z5iBcChrrLm1V1ggghq2-338" value="&lt;div&gt;$$x_{i,j,k}$$&lt;/div&gt;" style="text;html=1;align=center;verticalAlign=middle;whiteSpace=wrap;rounded=0;fillColor=none;" vertex="1" parent="z5iBcChrrLm1V1ggghq2-332">
          <mxGeometry y="40" width="60" height="30" as="geometry" />
        </mxCell>
        <mxCell id="z5iBcChrrLm1V1ggghq2-339" value="&lt;div&gt;$$x_{i,j,k}$$&lt;/div&gt;" style="text;html=1;align=center;verticalAlign=middle;whiteSpace=wrap;rounded=0;" vertex="1" parent="z5iBcChrrLm1V1ggghq2-332">
          <mxGeometry x="41" y="3" width="55" height="27" as="geometry" />
        </mxCell>
        <mxCell id="z5iBcChrrLm1V1ggghq2-340" value="&lt;div&gt;$$x_{i,j,k}$$&lt;/div&gt;" style="text;html=1;align=center;verticalAlign=middle;whiteSpace=wrap;rounded=0;" vertex="1" parent="z5iBcChrrLm1V1ggghq2-332">
          <mxGeometry x="36" y="75" width="60" height="30" as="geometry" />
        </mxCell>
        <mxCell id="z5iBcChrrLm1V1ggghq2-341" value="&lt;div&gt;$$x_{i,j,k}$$&lt;/div&gt;" style="text;html=1;align=center;verticalAlign=middle;whiteSpace=wrap;rounded=0;" vertex="1" parent="z5iBcChrrLm1V1ggghq2-332">
          <mxGeometry x="73" y="40" width="60" height="30" as="geometry" />
        </mxCell>
        <mxCell id="z5iBcChrrLm1V1ggghq2-342" value="&lt;div&gt;$$x_{i,j,k}$$&lt;/div&gt;" style="text;html=1;align=center;verticalAlign=middle;whiteSpace=wrap;rounded=0;" vertex="1" parent="z5iBcChrrLm1V1ggghq2-332">
          <mxGeometry x="75.5" y="3" width="55" height="27" as="geometry" />
        </mxCell>
        <mxCell id="z5iBcChrrLm1V1ggghq2-343" value="&lt;div&gt;$$x_{i,j,k}$$&lt;/div&gt;" style="text;html=1;align=center;verticalAlign=middle;whiteSpace=wrap;rounded=0;" vertex="1" parent="z5iBcChrrLm1V1ggghq2-332">
          <mxGeometry x="72.5" y="76" width="60" height="30" as="geometry" />
        </mxCell>
        <mxCell id="z5iBcChrrLm1V1ggghq2-344" value="" style="group;fillColor=none;" vertex="1" connectable="0" parent="z5iBcChrrLm1V1ggghq2-331">
          <mxGeometry x="17" y="42" width="133" height="110" as="geometry" />
        </mxCell>
        <mxCell id="z5iBcChrrLm1V1ggghq2-345" value="" style="whiteSpace=wrap;html=1;aspect=fixed;strokeColor=none;" vertex="1" parent="z5iBcChrrLm1V1ggghq2-344">
          <mxGeometry x="10" y="-1" width="111" height="111" as="geometry" />
        </mxCell>
        <mxCell id="z5iBcChrrLm1V1ggghq2-346" value="" style="html=1;verticalLabelPosition=bottom;labelBackgroundColor=#ffffff;verticalAlign=top;shadow=0;dashed=0;strokeWidth=1;shape=mxgraph.ios7ui.iconGrid;fillColor=#dae8fc;gridSize=3,3;strokeColor=#6c8ebf;" vertex="1" parent="z5iBcChrrLm1V1ggghq2-344">
          <mxGeometry x="11" width="110" height="110" as="geometry" />
        </mxCell>
        <mxCell id="z5iBcChrrLm1V1ggghq2-347" value="" style="whiteSpace=wrap;html=1;aspect=fixed;fillColor=#f8cecc;strokeColor=none;" vertex="1" parent="z5iBcChrrLm1V1ggghq2-344">
          <mxGeometry x="51" y="40" width="30" height="30" as="geometry" />
        </mxCell>
        <mxCell id="z5iBcChrrLm1V1ggghq2-348" value="" style="whiteSpace=wrap;html=1;aspect=fixed;fillColor=#f8cecc;strokeColor=none;" vertex="1" parent="z5iBcChrrLm1V1ggghq2-344">
          <mxGeometry x="88" y="78" width="30" height="30" as="geometry" />
        </mxCell>
        <mxCell id="z5iBcChrrLm1V1ggghq2-349" value="&lt;div&gt;$$x_{i,j,k}$$&lt;/div&gt;" style="text;html=1;align=center;verticalAlign=middle;whiteSpace=wrap;rounded=0;" vertex="1" parent="z5iBcChrrLm1V1ggghq2-344">
          <mxGeometry y="3" width="60" height="30" as="geometry" />
        </mxCell>
        <mxCell id="z5iBcChrrLm1V1ggghq2-350" value="&lt;div&gt;$$x_{i,j,k}$$&lt;/div&gt;" style="text;html=1;align=center;verticalAlign=middle;whiteSpace=wrap;rounded=0;fillColor=none;" vertex="1" parent="z5iBcChrrLm1V1ggghq2-344">
          <mxGeometry y="40" width="60" height="30" as="geometry" />
        </mxCell>
        <mxCell id="z5iBcChrrLm1V1ggghq2-351" value="&lt;div&gt;$$x_{i,j,k}$$&lt;/div&gt;" style="text;html=1;align=center;verticalAlign=middle;whiteSpace=wrap;rounded=0;" vertex="1" parent="z5iBcChrrLm1V1ggghq2-344">
          <mxGeometry x="41" y="3" width="55" height="27" as="geometry" />
        </mxCell>
        <mxCell id="z5iBcChrrLm1V1ggghq2-352" value="&lt;div&gt;$$x_{i,j,k}$$&lt;/div&gt;" style="text;html=1;align=center;verticalAlign=middle;whiteSpace=wrap;rounded=0;" vertex="1" parent="z5iBcChrrLm1V1ggghq2-344">
          <mxGeometry x="36" y="75" width="60" height="30" as="geometry" />
        </mxCell>
        <mxCell id="z5iBcChrrLm1V1ggghq2-353" value="&lt;div&gt;$$x_{i,j,k}$$&lt;/div&gt;" style="text;html=1;align=center;verticalAlign=middle;whiteSpace=wrap;rounded=0;" vertex="1" parent="z5iBcChrrLm1V1ggghq2-344">
          <mxGeometry x="73" y="40" width="60" height="30" as="geometry" />
        </mxCell>
        <mxCell id="z5iBcChrrLm1V1ggghq2-354" value="$$y_{i,j,k}$$" style="whiteSpace=wrap;html=1;aspect=fixed;fillColor=#f8cecc;strokeColor=none;" vertex="1" parent="z5iBcChrrLm1V1ggghq2-344">
          <mxGeometry x="14" y="78" width="30" height="30" as="geometry" />
        </mxCell>
        <mxCell id="z5iBcChrrLm1V1ggghq2-355" value="&lt;div&gt;$$x_{i,j,k}$$&lt;/div&gt;" style="text;html=1;align=center;verticalAlign=middle;whiteSpace=wrap;rounded=0;" vertex="1" parent="z5iBcChrrLm1V1ggghq2-344">
          <mxGeometry x="75.5" y="3" width="55" height="27" as="geometry" />
        </mxCell>
        <mxCell id="z5iBcChrrLm1V1ggghq2-356" value="" style="group;fillColor=none;fontColor=#474747;" vertex="1" connectable="0" parent="z5iBcChrrLm1V1ggghq2-331">
          <mxGeometry x="37" y="67" width="133" height="175" as="geometry" />
        </mxCell>
        <mxCell id="z5iBcChrrLm1V1ggghq2-357" value="" style="whiteSpace=wrap;html=1;aspect=fixed;strokeColor=none;" vertex="1" parent="z5iBcChrrLm1V1ggghq2-356">
          <mxGeometry x="10" y="-1" width="111" height="111" as="geometry" />
        </mxCell>
        <mxCell id="z5iBcChrrLm1V1ggghq2-358" value="" style="html=1;verticalLabelPosition=bottom;labelBackgroundColor=#ffffff;verticalAlign=top;shadow=0;dashed=0;strokeWidth=1;shape=mxgraph.ios7ui.iconGrid;fillColor=#dae8fc;gridSize=3,3;strokeColor=#6c8ebf;" vertex="1" parent="z5iBcChrrLm1V1ggghq2-356">
          <mxGeometry x="11" width="110" height="110" as="geometry" />
        </mxCell>
        <mxCell id="z5iBcChrrLm1V1ggghq2-359" value="" style="whiteSpace=wrap;html=1;aspect=fixed;fillColor=#f8cecc;strokeColor=none;" vertex="1" parent="z5iBcChrrLm1V1ggghq2-356">
          <mxGeometry x="51" y="40" width="30" height="30" as="geometry" />
        </mxCell>
        <mxCell id="z5iBcChrrLm1V1ggghq2-360" value="$$y_{i,j,k}$$" style="whiteSpace=wrap;html=1;aspect=fixed;fillColor=#f8cecc;strokeColor=none;" vertex="1" parent="z5iBcChrrLm1V1ggghq2-356">
          <mxGeometry x="88" y="78" width="30" height="30" as="geometry" />
        </mxCell>
        <mxCell id="z5iBcChrrLm1V1ggghq2-361" value="&lt;div&gt;$$x_{i,j,k}$$&lt;/div&gt;" style="text;html=1;align=center;verticalAlign=middle;whiteSpace=wrap;rounded=0;" vertex="1" parent="z5iBcChrrLm1V1ggghq2-356">
          <mxGeometry y="3" width="60" height="30" as="geometry" />
        </mxCell>
        <mxCell id="z5iBcChrrLm1V1ggghq2-362" value="&lt;div&gt;$$x_{i,j,k}$$&lt;/div&gt;" style="text;html=1;align=center;verticalAlign=middle;whiteSpace=wrap;rounded=0;" vertex="1" parent="z5iBcChrrLm1V1ggghq2-356">
          <mxGeometry x="41" y="3" width="55" height="27" as="geometry" />
        </mxCell>
        <mxCell id="z5iBcChrrLm1V1ggghq2-363" value="&lt;div&gt;$$x_{i,j,k}$$&lt;/div&gt;" style="text;html=1;align=center;verticalAlign=middle;whiteSpace=wrap;rounded=0;" vertex="1" parent="z5iBcChrrLm1V1ggghq2-356">
          <mxGeometry x="36" y="75" width="60" height="30" as="geometry" />
        </mxCell>
        <mxCell id="z5iBcChrrLm1V1ggghq2-364" value="&lt;div&gt;$$x_{i,j,k}$$&lt;/div&gt;" style="text;html=1;align=center;verticalAlign=middle;whiteSpace=wrap;rounded=0;" vertex="1" parent="z5iBcChrrLm1V1ggghq2-356">
          <mxGeometry x="73" y="40" width="60" height="30" as="geometry" />
        </mxCell>
        <mxCell id="z5iBcChrrLm1V1ggghq2-365" value="" style="whiteSpace=wrap;html=1;aspect=fixed;fillColor=#f8cecc;strokeColor=none;" vertex="1" parent="z5iBcChrrLm1V1ggghq2-356">
          <mxGeometry x="13" y="39.5" width="30" height="30" as="geometry" />
        </mxCell>
        <mxCell id="z5iBcChrrLm1V1ggghq2-366" value="&lt;div&gt;$$x_{i,j,k}$$&lt;/div&gt;" style="text;html=1;align=center;verticalAlign=middle;whiteSpace=wrap;rounded=0;" vertex="1" parent="z5iBcChrrLm1V1ggghq2-356">
          <mxGeometry x="75.5" y="3" width="55" height="27" as="geometry" />
        </mxCell>
        <mxCell id="z5iBcChrrLm1V1ggghq2-367" value="&lt;div&gt;$$x_{i,j,k}$$&lt;/div&gt;" style="text;html=1;align=center;verticalAlign=middle;whiteSpace=wrap;rounded=0;fillColor=none;" vertex="1" parent="z5iBcChrrLm1V1ggghq2-356">
          <mxGeometry x="-2" y="78" width="60" height="30" as="geometry" />
        </mxCell>
        <mxCell id="z5iBcChrrLm1V1ggghq2-370" value="Imputed data" style="text;html=1;align=center;verticalAlign=middle;whiteSpace=wrap;rounded=0;" vertex="1" parent="z5iBcChrrLm1V1ggghq2-356">
          <mxGeometry x="30" y="121" width="60" height="30" as="geometry" />
        </mxCell>
        <mxCell id="z5iBcChrrLm1V1ggghq2-371" value="$$y_{i,j,k}$$" style="whiteSpace=wrap;html=1;aspect=fixed;fillColor=#f8cecc;strokeColor=none;" vertex="1" parent="z5iBcChrrLm1V1ggghq2-356">
          <mxGeometry x="51" y="40" width="30" height="30" as="geometry" />
        </mxCell>
        <mxCell id="z5iBcChrrLm1V1ggghq2-372" value="$$y_{i,j,k}$$" style="whiteSpace=wrap;html=1;aspect=fixed;fillColor=#f8cecc;strokeColor=none;" vertex="1" parent="z5iBcChrrLm1V1ggghq2-356">
          <mxGeometry x="13" y="39.5" width="30" height="30" as="geometry" />
        </mxCell>
        <mxCell id="z5iBcChrrLm1V1ggghq2-374" value="" style="endArrow=classic;html=1;rounded=0;fillColor=#f5f5f5;strokeColor=#666666;endFill=1;" edge="1" parent="1">
          <mxGeometry width="50" height="50" relative="1" as="geometry">
            <mxPoint x="310" y="340" as="sourcePoint" />
            <mxPoint x="250" y="360" as="targetPoint" />
          </mxGeometry>
        </mxCell>
        <mxCell id="z5iBcChrrLm1V1ggghq2-377" value="" style="endArrow=classic;html=1;rounded=0;fillColor=#f5f5f5;strokeColor=#666666;entryX=0.5;entryY=1;entryDx=0;entryDy=0;" edge="1" parent="1" target="z5iBcChrrLm1V1ggghq2-375">
          <mxGeometry width="50" height="50" relative="1" as="geometry">
            <mxPoint x="160" y="330" as="sourcePoint" />
            <mxPoint x="173" y="287" as="targetPoint" />
          </mxGeometry>
        </mxCell>
        <mxCell id="z5iBcChrrLm1V1ggghq2-378" value="" style="endArrow=classic;html=1;rounded=0;fillColor=#f5f5f5;strokeColor=#666666;" edge="1" parent="1">
          <mxGeometry width="50" height="50" relative="1" as="geometry">
            <mxPoint x="573.41" y="250" as="sourcePoint" />
            <mxPoint x="573.41" y="300" as="targetPoint" />
          </mxGeometry>
        </mxCell>
        <mxCell id="z5iBcChrrLm1V1ggghq2-379" value="&lt;font face=&quot;Georgia&quot;&gt;Hint&lt;/font&gt;" style="rounded=1;whiteSpace=wrap;html=1;fillColor=#dae8fc;strokeColor=#6c8ebf;" vertex="1" parent="1">
          <mxGeometry x="527" y="306" width="93" height="38" as="geometry" />
        </mxCell>
        <mxCell id="z5iBcChrrLm1V1ggghq2-380" value="&lt;font face=&quot;Georgia&quot;&gt;Discriminator&lt;/font&gt;" style="rounded=1;whiteSpace=wrap;html=1;glass=0;fillColor=#f8cecc;strokeColor=#b85450;shadow=0;" vertex="1" parent="1">
          <mxGeometry x="350" y="390" width="113" height="40" as="geometry" />
        </mxCell>
        <mxCell id="z5iBcChrrLm1V1ggghq2-381" value="" style="endArrow=classic;html=1;rounded=0;exitX=1;exitY=0.75;exitDx=0;exitDy=0;fillColor=#f5f5f5;strokeColor=#666666;endFill=1;" edge="1" parent="1" source="z5iBcChrrLm1V1ggghq2-366">
          <mxGeometry width="50" height="50" relative="1" as="geometry">
            <mxPoint x="340.33" y="420" as="sourcePoint" />
            <mxPoint x="340" y="410" as="targetPoint" />
          </mxGeometry>
        </mxCell>
        <mxCell id="z5iBcChrrLm1V1ggghq2-382" value="" style="endArrow=classic;html=1;rounded=0;fillColor=#f5f5f5;strokeColor=#666666;endFill=1;" edge="1" parent="1">
          <mxGeometry width="50" height="50" relative="1" as="geometry">
            <mxPoint x="530" y="350" as="sourcePoint" />
            <mxPoint x="470" y="400" as="targetPoint" />
          </mxGeometry>
        </mxCell>
        <mxCell id="z5iBcChrrLm1V1ggghq2-383" value="&lt;font face=&quot;Georgia&quot;&gt;Predicted mask&lt;/font&gt;" style="rounded=1;whiteSpace=wrap;html=1;fillColor=#ffe6cc;strokeColor=#d79b00;" vertex="1" parent="1">
          <mxGeometry x="360" y="460" width="93" height="38" as="geometry" />
        </mxCell>
        <mxCell id="z5iBcChrrLm1V1ggghq2-384" value="" style="endArrow=classic;html=1;rounded=0;fillColor=#f5f5f5;strokeColor=#666666;" edge="1" parent="1">
          <mxGeometry width="50" height="50" relative="1" as="geometry">
            <mxPoint x="407.29" y="435" as="sourcePoint" />
            <mxPoint x="407.29" y="455" as="targetPoint" />
          </mxGeometry>
        </mxCell>
        <mxCell id="z5iBcChrrLm1V1ggghq2-385" value="&lt;font face=&quot;Georgia&quot;&gt;Loss&lt;/font&gt;" style="rounded=1;whiteSpace=wrap;html=1;fillColor=#f5f5f5;fontColor=#333333;strokeColor=#666666;movable=1;resizable=1;rotatable=1;deletable=1;editable=1;locked=0;connectable=1;" vertex="1" parent="1">
          <mxGeometry x="500" y="464" width="80" height="30" as="geometry" />
        </mxCell>
        <mxCell id="z5iBcChrrLm1V1ggghq2-388" value="" style="edgeStyle=segmentEdgeStyle;endArrow=classic;html=1;curved=0;rounded=0;endSize=8;startSize=8;fillColor=#f5f5f5;strokeColor=#666666;" edge="1" parent="1">
          <mxGeometry width="50" height="50" relative="1" as="geometry">
            <mxPoint x="640" y="220" as="sourcePoint" />
            <mxPoint x="590" y="480" as="targetPoint" />
            <Array as="points">
              <mxPoint x="640" y="480" />
            </Array>
          </mxGeometry>
        </mxCell>
        <mxCell id="z5iBcChrrLm1V1ggghq2-389" value="" style="endArrow=classic;html=1;rounded=0;fillColor=#f5f5f5;strokeColor=#666666;" edge="1" parent="1">
          <mxGeometry width="50" height="50" relative="1" as="geometry">
            <mxPoint x="460" y="480" as="sourcePoint" />
            <mxPoint x="490" y="480" as="targetPoint" />
          </mxGeometry>
        </mxCell>
        <mxCell id="z5iBcChrrLm1V1ggghq2-390" value="" style="edgeStyle=elbowEdgeStyle;elbow=vertical;endArrow=classic;html=1;curved=0;rounded=0;endSize=8;startSize=8;fillColor=#f5f5f5;strokeColor=#666666;dashed=1;" edge="1" parent="1">
          <mxGeometry width="50" height="50" relative="1" as="geometry">
            <mxPoint x="550" y="450" as="sourcePoint" />
            <mxPoint x="470" y="410" as="targetPoint" />
            <Array as="points">
              <mxPoint x="510" y="410" />
            </Array>
          </mxGeometry>
        </mxCell>
        <mxCell id="z5iBcChrrLm1V1ggghq2-391" value="Update" style="edgeLabel;html=1;align=center;verticalAlign=middle;resizable=0;points=[];" vertex="1" connectable="0" parent="z5iBcChrrLm1V1ggghq2-390">
          <mxGeometry x="0.1937" relative="1" as="geometry">
            <mxPoint as="offset" />
          </mxGeometry>
        </mxCell>
        <mxCell id="z5iBcChrrLm1V1ggghq2-392" value="" style="edgeStyle=elbowEdgeStyle;elbow=vertical;endArrow=classic;html=1;curved=0;rounded=0;endSize=8;startSize=8;fillColor=#f5f5f5;strokeColor=#666666;dashed=1;" edge="1" parent="1">
          <mxGeometry width="50" height="50" relative="1" as="geometry">
            <mxPoint x="510" y="460" as="sourcePoint" />
            <mxPoint x="380" y="350" as="targetPoint" />
            <Array as="points">
              <mxPoint x="410" y="370" />
            </Array>
          </mxGeometry>
        </mxCell>
        <mxCell id="z5iBcChrrLm1V1ggghq2-393" value="Update" style="edgeLabel;html=1;align=center;verticalAlign=middle;resizable=0;points=[];" vertex="1" connectable="0" parent="z5iBcChrrLm1V1ggghq2-392">
          <mxGeometry x="0.1937" relative="1" as="geometry">
            <mxPoint as="offset" />
          </mxGeometry>
        </mxCell>
      </root>
    </mxGraphModel>
  </diagram>
</mxfile>
